<?xml version="1.0" encoding="utf-8"?>
<svg xmlns="http://www.w3.org/2000/svg" style="margin: auto; background: rgba(255, 255, 255, 0); display: block; shape-rendering: auto;" width="127" height="34" preserveAspectRatio="xMidYMid">
<style type="text/css">
  text {
    text-anchor: middle; font-size: 25px; opacity: 0;
  }
</style>
<g style="transform-origin: 63.5px 17px; transform: scale(0.568182);">
<g transform="translate(63.5,17)">
  <g transform="translate(0,0)"><g class="path" style="transform: scale(0.91); transform-origin: -87.83px -2.65906px; animation: 1.42857s linear -0.848571s infinite normal forwards running breath-270538f3-2f9c-43c3-becd-a337661332aa;"><path d="M30.49-30.94L19.53 0L11.73 0L0.17-30.94L8.87-30.94L17.45-6.04L25.20-30.94L30.49-30.94" fill="#eb3f41" stroke="none" stroke-width="none" transform="translate(-103.16000366210938,12.81094250488281)" style="fill: rgb(235, 63, 65);"></path></g><g class="path" style="transform: scale(0.91); transform-origin: -60.365px 0.345942px; animation: 1.42857s linear -0.754286s infinite normal forwards running breath-270538f3-2f9c-43c3-becd-a337661332aa;"><path d="M37.55-11.77L37.55-11.77L37.55-11.77Q38.89-11.47 40.22-11.30L40.22-11.30L40.22-11.30Q41.55-11.13 42.90-11.13L42.90-11.13L42.90-11.13Q44.32-11.13 45.54-11.40L45.54-11.40L45.54-11.40Q46.75-11.67 47.64-12.30L47.64-12.30L47.64-12.30Q48.53-12.93 49.05-13.99L49.05-13.99L49.05-13.99Q49.56-15.04 49.56-16.61L49.56-16.61L49.56-16.61Q49.56-17.88 49.22-18.93L49.22-18.93L49.22-18.93Q48.88-19.98 48.20-20.73L48.20-20.73L48.20-20.73Q47.52-21.48 46.54-21.90L46.54-21.90L46.54-21.90Q45.55-22.32 44.24-22.32L44.24-22.32L44.24-22.32Q43.01-22.32 42.03-21.87L42.03-21.87L42.03-21.87Q41.06-21.42 40.32-20.66L40.32-20.66L40.32-20.66Q39.57-19.89 39.05-18.88L39.05-18.88L39.05-18.88Q38.52-17.88 38.18-16.78L38.18-16.78L38.18-16.78Q37.83-15.68 37.68-14.57L37.68-14.57L37.68-14.57Q37.53-13.45 37.53-12.46L37.53-12.46L37.53-12.46Q37.53-12.29 37.53-12.12L37.53-12.12L37.53-12.12Q37.53-11.95 37.55-11.77zM55.45-16.67L55.45-16.67L55.45-16.67Q55.45-15.15 54.96-13.95L54.96-13.95L54.96-13.95Q54.46-12.76 53.61-11.86L53.61-11.86L53.61-11.86Q52.77-10.96 51.65-10.33L51.65-10.33L51.65-10.33Q50.53-9.71 49.26-9.31L49.26-9.31L49.26-9.31Q48.00-8.92 46.65-8.74L46.65-8.74L46.65-8.74Q45.31-8.57 44.04-8.57L44.04-8.57L44.04-8.57Q42.43-8.57 40.86-8.80L40.86-8.80L40.86-8.80Q39.29-9.02 37.77-9.52L37.77-9.52L37.77-9.52Q38.01-8.10 38.52-6.82L38.52-6.82L38.52-6.82Q39.04-5.54 39.90-4.59L39.90-4.59L39.90-4.59Q40.76-3.63 42.01-3.07L42.01-3.07L42.01-3.07Q43.27-2.51 44.99-2.51L44.99-2.51L44.99-2.51Q46.13-2.51 47.16-2.86L47.16-2.86L47.16-2.86Q48.19-3.20 49.05-3.82L49.05-3.82L49.05-3.82Q49.91-4.45 50.56-5.31L50.56-5.31L50.56-5.31Q51.22-6.17 51.63-7.22L51.63-7.22L54.76-6.06L54.76-6.06Q54.05-4.36 52.82-3.13L52.82-3.13L52.82-3.13Q51.58-1.89 50.03-1.08L50.03-1.08L50.03-1.08Q48.47-0.28 46.72 0.11L46.72 0.11L46.72 0.11Q44.97 0.49 43.25 0.49L43.25 0.49L43.25 0.49Q40.41 0.49 38.01-0.46L38.01-0.46L38.01-0.46Q35.60-1.42 33.86-3.14L33.86-3.14L33.86-3.14Q32.12-4.86 31.13-7.24L31.13-7.24L31.13-7.24Q30.14-9.63 30.14-12.46L30.14-12.46L30.14-12.46Q30.14-15.30 31.13-17.68L31.13-17.68L31.13-17.68Q32.12-20.07 33.86-21.79L33.86-21.79L33.86-21.79Q35.60-23.50 38.01-24.46L38.01-24.46L38.01-24.46Q40.41-25.42 43.25-25.42L43.25-25.42L43.25-25.42Q44.62-25.42 46.06-25.22L46.06-25.22L46.06-25.22Q47.50-25.03 48.86-24.61L48.86-24.61L48.86-24.61Q50.21-24.19 51.41-23.53L51.41-23.53L51.41-23.53Q52.62-22.86 53.51-21.88L53.51-21.88L53.51-21.88Q54.40-20.90 54.92-19.62L54.92-19.62L54.92-19.62Q55.45-18.33 55.45-16.67" fill="#eb3f41" stroke="none" stroke-width="none" transform="translate(-103.16000366210938,12.81094250488281)" style="fill: rgb(235, 63, 65);"></path></g><g class="path" style="transform: scale(0.91); transform-origin: -32.63px 0.100943px; animation: 1.42857s linear -0.66s infinite normal forwards running breath-270538f3-2f9c-43c3-becd-a337661332aa;"><path d="M81.08-22.62L81.08-22.62L77-15.86L77-15.86Q76.74-16.71 76.33-17.79L76.33-17.79L76.33-17.79Q75.93-18.86 75.32-19.80L75.32-19.80L75.32-19.80Q74.72-20.73 73.88-21.37L73.88-21.37L73.88-21.37Q73.05-22 71.95-22L71.95-22L71.95-22Q70.94-22 70.20-21.48L70.20-21.48L70.20-21.48Q69.46-20.97 68.94-20.14L68.94-20.14L68.94-20.14Q68.43-19.31 68.09-18.27L68.09-18.27L68.09-18.27Q67.76-17.23 67.58-16.17L67.58-16.17L67.58-16.17Q67.40-15.10 67.33-14.13L67.33-14.13L67.33-14.13Q67.27-13.15 67.27-12.44L67.27-12.44L67.27 0L59.98 0L59.98-24.81L62.78-24.81L65.72-19.04L65.72-19.04Q66.32-20.43 67.10-21.60L67.10-21.60L67.10-21.60Q67.87-22.77 68.88-23.62L68.88-23.62L68.88-23.62Q69.89-24.47 71.17-24.94L71.17-24.94L71.17-24.94Q72.45-25.42 74.06-25.42L74.06-25.42L74.06-25.42Q74.89-25.42 75.93-25.28L75.93-25.28L75.93-25.28Q76.96-25.14 77.95-24.80L77.95-24.80L77.95-24.80Q78.93-24.47 79.77-23.93L79.77-23.93L79.77-23.93Q80.61-23.40 81.08-22.62" fill="#eb3f41" stroke="none" stroke-width="none" transform="translate(-103.16000366210938,12.81094250488281)" style="fill: rgb(235, 63, 65);"></path></g><g class="path" style="transform: scale(0.91); transform-origin: -11.84px -4.16406px; animation: 1.42857s linear -0.565714s infinite normal forwards running breath-270538f3-2f9c-43c3-becd-a337661332aa;"><path d="M93.46-21.94L93.46 0L86.17 0L86.17-21.94L81.66-21.94L81.66-24.81L86.17-24.81L86.17-33.95L93.46-33.95L93.46-24.81L100.98-24.81L100.98-21.94L93.46-21.94" fill="#eb3f41" stroke="none" stroke-width="none" transform="translate(-103.16000366210938,12.81094250488281)" style="fill: rgb(235, 63, 65);"></path></g><g class="path" style="transform: scale(0.91); transform-origin: 4.855px -17.9841px; animation: 1.42857s linear -0.471429s infinite normal forwards running breath-270538f3-2f9c-43c3-becd-a337661332aa;"><path d="M111.98-30.81L111.98-30.81L111.98-30.81Q111.98-29.99 111.67-29.26L111.67-29.26L111.67-29.26Q111.35-28.53 110.82-27.99L110.82-27.99L110.82-27.99Q110.28-27.46 109.55-27.15L109.55-27.15L109.55-27.15Q108.82-26.83 108.00-26.83L108.00-26.83L108.00-26.83Q107.19-26.83 106.47-27.15L106.47-27.15L106.47-27.15Q105.75-27.46 105.21-27.99L105.21-27.99L105.21-27.99Q104.67-28.53 104.36-29.26L104.36-29.26L104.36-29.26Q104.05-29.99 104.05-30.81L104.05-30.81L104.05-30.81Q104.05-31.63 104.36-32.34L104.36-32.34L104.36-32.34Q104.67-33.06 105.21-33.60L105.21-33.60L105.21-33.60Q105.75-34.14 106.47-34.45L106.47-34.45L106.47-34.45Q107.19-34.76 108.00-34.76L108.00-34.76L108.00-34.76Q108.82-34.76 109.55-34.45L109.55-34.45L109.55-34.45Q110.28-34.14 110.82-33.60L110.82-33.60L110.82-33.60Q111.35-33.06 111.67-32.34L111.67-32.34L111.67-32.34Q111.98-31.63 111.98-30.81" fill="#eb3f41" stroke="none" stroke-width="none" transform="translate(-103.16000366210938,12.81094250488281)" style="fill: rgb(235, 63, 65);"></path></g><g class="path" style="transform: scale(0.91); transform-origin: 4.85px 0.415942px; animation: 1.42857s linear -0.377143s infinite normal forwards running breath-270538f3-2f9c-43c3-becd-a337661332aa;"><path d="M111.65-24.79L111.65 0L104.37 0L104.37-24.79L111.65-24.79" fill="#eb3f41" stroke="none" stroke-width="none" transform="translate(-103.16000366210938,12.81094250488281)" style="fill: rgb(235, 63, 65);"></path></g><g class="path" style="transform: scale(0.91); transform-origin: 25.305px 0.345942px; animation: 1.42857s linear -0.282857s infinite normal forwards running breath-270538f3-2f9c-43c3-becd-a337661332aa;"><path d="M140.64-18.67L140.64-18.67L137.50-17.42L137.50-17.42Q136.75-19.79 134.99-21.05L134.99-21.05L134.99-21.05Q133.22-22.32 130.75-22.32L130.75-22.32L130.75-22.32Q129.42-22.32 128.38-21.90L128.38-21.90L128.38-21.90Q127.34-21.48 126.55-20.75L126.55-20.75L126.55-20.75Q125.77-20.02 125.22-19.06L125.22-19.06L125.22-19.06Q124.67-18.09 124.33-16.99L124.33-16.99L124.33-16.99Q123.99-15.90 123.84-14.73L123.84-14.73L123.84-14.73Q123.69-13.56 123.69-12.46L123.69-12.46L123.69-12.46Q123.69-11.28 123.81-10.08L123.81-10.08L123.81-10.08Q123.94-8.87 124.25-7.77L124.25-7.77L124.25-7.77Q124.57-6.66 125.08-5.70L125.08-5.70L125.08-5.70Q125.60-4.75 126.38-4.04L126.38-4.04L126.38-4.04Q127.17-3.33 128.25-2.92L128.25-2.92L128.25-2.92Q129.34-2.51 130.75-2.51L130.75-2.51L130.75-2.51Q131.89-2.51 132.92-2.86L132.92-2.86L132.92-2.86Q133.96-3.20 134.81-3.82L134.81-3.82L134.81-3.82Q135.67-4.45 136.34-5.31L136.34-5.31L136.34-5.31Q137.01-6.17 137.39-7.22L137.39-7.22L140.55-6.06L140.55-6.06Q139.84-4.36 138.67-3.13L138.67-3.13L138.67-3.13Q137.50-1.89 136.02-1.08L136.02-1.08L136.02-1.08Q134.54-0.28 132.84 0.11L132.84 0.11L132.84 0.11Q131.14 0.49 129.40 0.49L129.40 0.49L129.40 0.49Q126.59 0.49 124.18-0.46L124.18-0.46L124.18-0.46Q121.77-1.42 120.02-3.15L120.02-3.15L120.02-3.15Q118.27-4.88 117.28-7.25L117.28-7.25L117.28-7.25Q116.29-9.63 116.29-12.46L116.29-12.46L116.29-12.46Q116.29-15.32 117.27-17.70L117.27-17.70L117.27-17.70Q118.25-20.09 119.99-21.81L119.99-21.81L119.99-21.81Q121.73-23.53 124.14-24.47L124.14-24.47L124.14-24.47Q126.54-25.42 129.40-25.42L129.40-25.42L129.40-25.42Q131.21-25.42 132.92-25.02L132.92-25.02L132.92-25.02Q134.64-24.62 136.11-23.79L136.11-23.79L136.11-23.79Q137.59-22.97 138.76-21.70L138.76-21.70L138.76-21.70Q139.93-20.43 140.64-18.67" fill="#eb3f41" stroke="none" stroke-width="none" transform="translate(-103.16000366210938,12.81094250488281)" style="fill: rgb(235, 63, 65);"></path></g><g class="path" style="transform: scale(0.91); transform-origin: 53.195px 0.695943px; animation: 1.42857s linear -0.188571s infinite normal forwards running breath-270538f3-2f9c-43c3-becd-a337661332aa;"><path d="M143.67-10.61L143.67-10.61L143.67-10.61Q143.67-12.31 143.96-14.14L143.96-14.14L143.96-14.14Q144.25-15.96 144.79-17.79L144.79-17.79L144.79-17.79Q145.34-19.62 146.12-21.40L146.12-21.40L146.12-21.40Q146.89-23.18 147.86-24.81L147.86-24.81L153.16-24.81L153.16-24.81Q152.63-23.20 152.21-21.45L152.21-21.45L152.21-21.45Q151.79-19.70 151.50-17.95L151.50-17.95L151.50-17.95Q151.21-16.20 151.05-14.52L151.05-14.52L151.05-14.52Q150.88-12.85 150.88-11.41L150.88-11.41L150.88-11.41Q150.88-10.57 150.96-9.61L150.96-9.61L150.96-9.61Q151.04-8.66 151.23-7.70L151.23-7.70L151.23-7.70Q151.42-6.75 151.78-5.87L151.78-5.87L151.78-5.87Q152.13-4.98 152.69-4.31L152.69-4.31L152.69-4.31Q153.25-3.63 154.05-3.23L154.05-3.23L154.05-3.23Q154.86-2.84 155.96-2.84L155.96-2.84L155.96-2.84Q157.03-2.84 157.88-3.32L157.88-3.32L157.88-3.32Q158.73-3.80 159.37-4.59L159.37-4.59L159.37-4.59Q160.02-5.37 160.47-6.38L160.47-6.38L160.47-6.38Q160.92-7.39 161.21-8.45L161.21-8.45L161.21-8.45Q161.50-9.52 161.64-10.54L161.64-10.54L161.64-10.54Q161.78-11.56 161.78-12.38L161.78-12.38L161.78-24.81L169.04-24.81L169.04 0L166.25 0L162.92-5.78L162.92-5.78Q162.29-4.34 161.40-3.17L161.40-3.17L161.40-3.17Q160.51-2.00 159.37-1.16L159.37-1.16L159.37-1.16Q158.23-0.32 156.85 0.13L156.85 0.13L156.85 0.13Q155.46 0.58 153.85 0.58L153.85 0.58L153.85 0.58Q151.27 0.58 149.36-0.26L149.36-0.26L149.36-0.26Q147.45-1.10 146.18-2.58L146.18-2.58L146.18-2.58Q144.91-4.06 144.29-6.11L144.29-6.11L144.29-6.11Q143.67-8.16 143.67-10.61" fill="#eb3f41" stroke="none" stroke-width="none" transform="translate(-103.16000366210938,12.81094250488281)" style="fill: rgb(235, 63, 65);"></path></g><g class="path" style="transform: scale(0.91); transform-origin: 82.49px 0.100943px; animation: 1.42857s linear -0.0942857s infinite normal forwards running breath-270538f3-2f9c-43c3-becd-a337661332aa;"><path d="M196.20-22.62L196.20-22.62L192.11-15.86L192.11-15.86Q191.86-16.71 191.45-17.79L191.45-17.79L191.45-17.79Q191.04-18.86 190.44-19.80L190.44-19.80L190.44-19.80Q189.84-20.73 189.00-21.37L189.00-21.37L189.00-21.37Q188.16-22 187.06-22L187.06-22L187.06-22Q186.05-22 185.31-21.48L185.31-21.48L185.31-21.48Q184.57-20.97 184.06-20.14L184.06-20.14L184.06-20.14Q183.54-19.31 183.21-18.27L183.21-18.27L183.21-18.27Q182.88-17.23 182.69-16.17L182.69-16.17L182.69-16.17Q182.51-15.10 182.45-14.13L182.45-14.13L182.45-14.13Q182.38-13.15 182.38-12.44L182.38-12.44L182.38 0L175.10 0L175.10-24.81L177.89-24.81L180.83-19.04L180.83-19.04Q181.44-20.43 182.21-21.60L182.21-21.60L182.21-21.60Q182.98-22.77 183.99-23.62L183.99-23.62L183.99-23.62Q185.00-24.47 186.28-24.94L186.28-24.94L186.28-24.94Q187.56-25.42 189.17-25.42L189.17-25.42L189.17-25.42Q190.01-25.42 191.04-25.28L191.04-25.28L191.04-25.28Q192.07-25.14 193.06-24.80L193.06-24.80L193.06-24.80Q194.05-24.47 194.88-23.93L194.88-23.93L194.88-23.93Q195.72-23.40 196.20-22.62" fill="#eb3f41" stroke="none" stroke-width="none" transform="translate(-103.16000366210938,12.81094250488281)" style="fill: rgb(235, 63, 65);"></path></g><g class="path" style="transform: scale(0.91); transform-origin: 99.695px -5.30906px; animation: 1.42857s linear 0s infinite normal forwards running breath-270538f3-2f9c-43c3-becd-a337661332aa;"><path d="M206.49-28.70L206.49 0L199.22 0L199.22-36.24L202.02-36.24L206.49-28.70" fill="#eb3f41" stroke="none" stroke-width="none" transform="translate(-103.16000366210938,12.81094250488281)" style="fill: rgb(235, 63, 65);"></path></g></g>
</g>
</g>
<style id="breath-270538f3-2f9c-43c3-becd-a337661332aa" data-anikit="">@keyframes breath-270538f3-2f9c-43c3-becd-a337661332aa
{
  0% {
    animation-timing-function: cubic-bezier(0.9647,0.2413,-0.0705,0.7911);
    transform: scale(0.9099999999999999);
  }
  51% {
    animation-timing-function: cubic-bezier(0.9226,0.2631,-0.0308,0.7628);
    transform: scale(1.02994);
  }
  100% {
    transform: scale(0.9099999999999999);
  }
}</style></svg>