<?xml version="1.0" encoding="utf-8"?>
<svg xmlns="http://www.w3.org/2000/svg" style="margin: auto; background: rgba(241, 242, 243, 0); display: block; shape-rendering: auto;" width="127" height="34" preserveAspectRatio="xMidYMid">
<style type="text/css">
  text {
    text-anchor: middle; font-size: 25px; opacity: 0;
  }
</style>
<g style="transform-origin: 63.5px 17px; transform: scale(0.3125);">
<g transform="translate(63.5,17)">
  <g transform="translate(0,0)"><g class="path" style="transform: scale(0.91); transform-origin: -160.92px 0.736277px; animation: 5s linear -2.97s infinite normal forwards running breath-829f95e3-8de9-4ace-a6d6-1f55e50d596d;"><path d="M46.48-45.12L28.71 0L16.84 0L0.43-45.12L13.63-45.12L25.66-9.18L37.34-45.12L46.48-45.12" fill="#eb3f41" stroke="none" stroke-width="none" transform="translate(-184.37496948242188,23.29627700805664)" style="fill: rgb(235, 63, 65);"></path></g><g class="path" style="transform: scale(0.91); transform-origin: -112.815px 0.641277px; animation: 5s linear -2.64s infinite normal forwards running breath-829f95e3-8de9-4ace-a6d6-1f55e50d596d;"><path d="M62.03-21.41L62.03-21.41L62.03-21.41Q64.45-20.86 66.88-20.55L66.88-20.55L66.88-20.55Q69.30-20.23 71.76-20.23L71.76-20.23L71.76-20.23Q74.34-20.23 76.54-20.72L76.54-20.72L76.54-20.72Q78.75-21.21 80.37-22.36L80.37-22.36L80.37-22.36Q81.99-23.52 82.93-25.43L82.93-25.43L82.93-25.43Q83.87-27.34 83.87-30.20L83.87-30.20L83.87-30.20Q83.87-32.50 83.24-34.41L83.24-34.41L83.24-34.41Q82.62-36.33 81.39-37.70L81.39-37.70L81.39-37.70Q80.16-39.06 78.36-39.82L78.36-39.82L78.36-39.82Q76.56-40.59 74.18-40.59L74.18-40.59L74.18-40.59Q71.95-40.59 70.18-39.77L70.18-39.77L70.18-39.77Q68.40-38.95 67.05-37.56L67.05-37.56L67.05-37.56Q65.70-36.17 64.75-34.34L64.75-34.34L64.75-34.34Q63.79-32.50 63.16-30.51L63.16-30.51L63.16-30.51Q62.54-28.52 62.27-26.48L62.27-26.48L62.27-26.48Q61.99-24.45 61.99-22.66L61.99-22.66L61.99-22.66Q61.99-22.34 61.99-22.03L61.99-22.03L61.99-22.03Q61.99-21.72 62.03-21.41zM94.57-30.31L94.57-30.31L94.57-30.31Q94.57-27.54 93.67-25.37L93.67-25.37L93.67-25.37Q92.77-23.20 91.23-21.56L91.23-21.56L91.23-21.56Q89.69-19.92 87.66-18.79L87.66-18.79L87.66-18.79Q85.63-17.66 83.32-16.93L83.32-16.93L83.32-16.93Q81.02-16.21 78.57-15.90L78.57-15.90L78.57-15.90Q76.13-15.59 73.83-15.59L73.83-15.59L73.83-15.59Q70.90-15.59 68.05-16.00L68.05-16.00L68.05-16.00Q65.20-16.41 62.42-17.30L62.42-17.30L62.42-17.30Q62.85-14.73 63.79-12.40L63.79-12.40L63.79-12.40Q64.73-10.08 66.29-8.34L66.29-8.34L66.29-8.34Q67.85-6.60 70.14-5.59L70.14-5.59L70.14-5.59Q72.42-4.57 75.55-4.57L75.55-4.57L75.55-4.57Q77.62-4.57 79.49-5.20L79.49-5.20L79.49-5.20Q81.37-5.82 82.93-6.95L82.93-6.95L82.93-6.95Q84.49-8.09 85.68-9.65L85.68-9.65L85.68-9.65Q86.88-11.21 87.62-13.13L87.62-13.13L93.32-11.02L93.32-11.02Q92.03-7.93 89.79-5.68L89.79-5.68L89.79-5.68Q87.54-3.44 84.71-1.97L84.71-1.97L84.71-1.97Q81.88-0.51 78.69 0.20L78.69 0.20L78.69 0.20Q75.51 0.90 72.38 0.90L72.38 0.90L72.38 0.90Q67.23 0.90 62.85-0.84L62.85-0.84L62.85-0.84Q58.48-2.58 55.31-5.70L55.31-5.70L55.31-5.70Q52.15-8.83 50.35-13.16L50.35-13.16L50.35-13.16Q48.55-17.50 48.55-22.66L48.55-22.66L48.55-22.66Q48.55-27.81 50.35-32.15L50.35-32.15L50.35-32.15Q52.15-36.48 55.31-39.61L55.31-39.61L55.31-39.61Q58.48-42.73 62.85-44.47L62.85-44.47L62.85-44.47Q67.23-46.21 72.38-46.21L72.38-46.21L72.38-46.21Q74.88-46.21 77.50-45.86L77.50-45.86L77.50-45.86Q80.12-45.51 82.58-44.75L82.58-44.75L82.58-44.75Q85.04-43.98 87.23-42.77L87.23-42.77L87.23-42.77Q89.41-41.56 91.04-39.79L91.04-39.79L91.04-39.79Q92.66-38.01 93.61-35.66L93.61-35.66L93.61-35.66Q94.57-33.32 94.57-30.31" fill="#eb3f41" stroke="none" stroke-width="none" transform="translate(-184.37496948242188,23.29627700805664)" style="fill: rgb(235, 63, 65);"></path></g><g class="path" style="transform: scale(0.91); transform-origin: -62.385px 0.191277px; animation: 5s linear -2.31s infinite normal forwards running breath-829f95e3-8de9-4ace-a6d6-1f55e50d596d;"><path d="M141.17-41.13L141.17-41.13L133.75-28.83L133.75-28.83Q133.28-30.39 132.54-32.34L132.54-32.34L132.54-32.34Q131.80-34.30 130.70-36.00L130.70-36.00L130.70-36.00Q129.61-37.70 128.09-38.85L128.09-38.85L128.09-38.85Q126.56-40 124.57-40L124.57-40L124.57-40Q122.73-40 121.39-39.06L121.39-39.06L121.39-39.06Q120.04-38.13 119.10-36.62L119.10-36.62L119.10-36.62Q118.16-35.12 117.56-33.22L117.56-33.22L117.56-33.22Q116.95-31.33 116.62-29.39L116.62-29.39L116.62-29.39Q116.29-27.46 116.17-25.68L116.17-25.68L116.17-25.68Q116.05-23.91 116.05-22.62L116.05-22.62L116.05 0L102.81 0L102.81-45.12L107.89-45.12L113.24-34.61L113.24-34.61Q114.34-37.15 115.74-39.28L115.74-39.28L115.74-39.28Q117.15-41.41 118.98-42.95L118.98-42.95L118.98-42.95Q120.82-44.49 123.14-45.35L123.14-45.35L123.14-45.35Q125.47-46.21 128.40-46.21L128.40-46.21L128.40-46.21Q129.92-46.21 131.80-45.96L131.80-45.96L131.80-45.96Q133.67-45.70 135.47-45.10L135.47-45.10L135.47-45.10Q137.27-44.49 138.79-43.52L138.79-43.52L138.79-43.52Q140.31-42.54 141.17-41.13" fill="#eb3f41" stroke="none" stroke-width="none" transform="translate(-184.37496948242188,23.29627700805664)" style="fill: rgb(235, 63, 65);"></path></g><g class="path" style="transform: scale(0.91); transform-origin: -24.59px -7.56372px; animation: 5s linear -1.98s infinite normal forwards running breath-829f95e3-8de9-4ace-a6d6-1f55e50d596d;"><path d="M163.67-39.88L163.67 0L150.43 0L150.43-39.88L142.23-39.88L142.23-45.12L150.43-45.12L150.43-61.72L163.67-61.72L163.67-45.12L177.34-45.12L177.34-39.88L163.67-39.88" fill="#eb3f41" stroke="none" stroke-width="none" transform="translate(-184.37496948242188,23.29627700805664)" style="fill: rgb(235, 63, 65);"></path></g><g class="path" style="transform: scale(0.91); transform-origin: 5.76003px -32.6987px; animation: 5s linear -1.65s infinite normal forwards running breath-829f95e3-8de9-4ace-a6d6-1f55e50d596d;"><path d="M197.34-56.02L197.34-56.02L197.34-56.02Q197.34-54.53 196.78-53.20L196.78-53.20L196.78-53.20Q196.21-51.88 195.23-50.90L195.23-50.90L195.23-50.90Q194.26-49.92 192.93-49.36L192.93-49.36L192.93-49.36Q191.60-48.79 190.12-48.79L190.12-48.79L190.12-48.79Q188.63-48.79 187.32-49.36L187.32-49.36L187.32-49.36Q186.02-49.92 185.04-50.90L185.04-50.90L185.04-50.90Q184.06-51.88 183.50-53.20L183.50-53.20L183.50-53.20Q182.93-54.53 182.93-56.02L182.93-56.02L182.93-56.02Q182.93-57.50 183.50-58.81L183.50-58.81L183.50-58.81Q184.06-60.12 185.04-61.09L185.04-61.09L185.04-61.09Q186.02-62.07 187.32-62.64L187.32-62.64L187.32-62.64Q188.63-63.20 190.12-63.20L190.12-63.20L190.12-63.20Q191.60-63.20 192.93-62.64L192.93-62.64L192.93-62.64Q194.26-62.07 195.23-61.09L195.23-61.09L195.23-61.09Q196.21-60.12 196.78-58.81L196.78-58.81L196.78-58.81Q197.34-57.50 197.34-56.02" fill="#eb3f41" stroke="none" stroke-width="none" transform="translate(-184.37496948242188,23.29627700805664)" style="fill: rgb(235, 63, 65);"></path></g><g class="path" style="transform: scale(0.91); transform-origin: 5.76503px 0.756275px; animation: 5s linear -1.32s infinite normal forwards running breath-829f95e3-8de9-4ace-a6d6-1f55e50d596d;"><path d="M196.76-45.08L196.76 0L183.52 0L183.52-45.08L196.76-45.08" fill="#eb3f41" stroke="none" stroke-width="none" transform="translate(-184.37496948242188,23.29627700805664)" style="fill: rgb(235, 63, 65);"></path></g><g class="path" style="transform: scale(0.91); transform-origin: 42.95px 0.641277px; animation: 5s linear -0.99s infinite normal forwards running breath-829f95e3-8de9-4ace-a6d6-1f55e50d596d;"><path d="M249.45-33.95L249.45-33.95L243.75-31.68L243.75-31.68Q242.38-35.98 239.18-38.28L239.18-38.28L239.18-38.28Q235.98-40.59 231.48-40.59L231.48-40.59L231.48-40.59Q229.06-40.59 227.17-39.82L227.17-39.82L227.17-39.82Q225.27-39.06 223.85-37.73L223.85-37.73L223.85-37.73Q222.42-36.41 221.43-34.65L221.43-34.65L221.43-34.65Q220.43-32.89 219.80-30.90L219.80-30.90L219.80-30.90Q219.18-28.91 218.91-26.78L218.91-26.78L218.91-26.78Q218.63-24.65 218.63-22.66L218.63-22.66L218.63-22.66Q218.63-20.51 218.87-18.32L218.87-18.32L218.87-18.32Q219.10-16.13 219.67-14.12L219.67-14.12L219.67-14.12Q220.23-12.11 221.17-10.37L221.17-10.37L221.17-10.37Q222.11-8.63 223.54-7.34L223.54-7.34L223.54-7.34Q224.96-6.05 226.93-5.31L226.93-5.31L226.93-5.31Q228.91-4.57 231.48-4.57L231.48-4.57L231.48-4.57Q233.55-4.57 235.43-5.20L235.43-5.20L235.43-5.20Q237.30-5.82 238.87-6.95L238.87-6.95L238.87-6.95Q240.43-8.09 241.64-9.65L241.64-9.65L241.64-9.65Q242.85-11.21 243.55-13.13L243.55-13.13L249.30-11.02L249.30-11.02Q248.01-7.93 245.88-5.68L245.88-5.68L245.88-5.68Q243.75-3.44 241.05-1.97L241.05-1.97L241.05-1.97Q238.36-0.51 235.27 0.20L235.27 0.20L235.27 0.20Q232.19 0.90 229.02 0.90L229.02 0.90L229.02 0.90Q223.91 0.90 219.53-0.84L219.53-0.84L219.53-0.84Q215.16-2.58 211.97-5.72L211.97-5.72L211.97-5.72Q208.79-8.87 206.99-13.18L206.99-13.18L206.99-13.18Q205.20-17.50 205.20-22.66L205.20-22.66L205.20-22.66Q205.20-27.85 206.97-32.19L206.97-32.19L206.97-32.19Q208.75-36.52 211.91-39.65L211.91-39.65L211.91-39.65Q215.08-42.77 219.45-44.49L219.45-44.49L219.45-44.49Q223.83-46.21 229.02-46.21L229.02-46.21L229.02-46.21Q232.30-46.21 235.43-45.49L235.43-45.49L235.43-45.49Q238.55-44.77 241.23-43.26L241.23-43.26L241.23-43.26Q243.91-41.76 246.04-39.45L246.04-39.45L246.04-39.45Q248.16-37.15 249.45-33.95" fill="#eb3f41" stroke="none" stroke-width="none" transform="translate(-184.37496948242188,23.29627700805664)" style="fill: rgb(235, 63, 65);"></path></g><g class="path" style="transform: scale(0.91); transform-origin: 93.65px 1.26128px; animation: 5s linear -0.66s infinite normal forwards running breath-829f95e3-8de9-4ace-a6d6-1f55e50d596d;"><path d="M254.96-19.30L254.96-19.30L254.96-19.30Q254.96-22.38 255.49-25.70L255.49-25.70L255.49-25.70Q256.02-29.02 257.01-32.34L257.01-32.34L257.01-32.34Q258.01-35.66 259.41-38.91L259.41-38.91L259.41-38.91Q260.82-42.15 262.58-45.12L262.58-45.12L272.23-45.12L272.23-45.12Q271.25-42.19 270.49-39.00L270.49-39.00L270.49-39.00Q269.73-35.82 269.20-32.64L269.20-32.64L269.20-32.64Q268.67-29.45 268.38-26.41L268.38-26.41L268.38-26.41Q268.09-23.36 268.09-20.74L268.09-20.74L268.09-20.74Q268.09-19.22 268.22-17.48L268.22-17.48L268.22-17.48Q268.36-15.74 268.71-14.00L268.71-14.00L268.71-14.00Q269.06-12.27 269.71-10.66L269.71-10.66L269.71-10.66Q270.35-9.06 271.37-7.83L271.37-7.83L271.37-7.83Q272.38-6.60 273.85-5.88L273.85-5.88L273.85-5.88Q275.31-5.16 277.30-5.16L277.30-5.16L277.30-5.16Q279.26-5.16 280.80-6.04L280.80-6.04L280.80-6.04Q282.34-6.91 283.52-8.34L283.52-8.34L283.52-8.34Q284.69-9.77 285.51-11.60L285.51-11.60L285.51-11.60Q286.33-13.44 286.86-15.37L286.86-15.37L286.86-15.37Q287.38-17.30 287.64-19.16L287.64-19.16L287.64-19.16Q287.89-21.02 287.89-22.50L287.89-22.50L287.89-45.12L301.09-45.12L301.09 0L296.02 0L289.96-10.51L289.96-10.51Q288.83-7.89 287.21-5.76L287.21-5.76L287.21-5.76Q285.59-3.63 283.52-2.11L283.52-2.11L283.52-2.11Q281.45-0.59 278.93 0.23L278.93 0.23L278.93 0.23Q276.41 1.05 273.48 1.05L273.48 1.05L273.48 1.05Q268.79 1.05 265.31-0.47L265.31-0.47L265.31-0.47Q261.84-1.99 259.53-4.69L259.53-4.69L259.53-4.69Q257.23-7.38 256.09-11.11L256.09-11.11L256.09-11.11Q254.96-14.84 254.96-19.30" fill="#eb3f41" stroke="none" stroke-width="none" transform="translate(-184.37496948242188,23.29627700805664)" style="fill: rgb(235, 63, 65);"></path></g><g class="path" style="transform: scale(0.91); transform-origin: 146.915px 0.191277px; animation: 5s linear -0.33s infinite normal forwards running breath-829f95e3-8de9-4ace-a6d6-1f55e50d596d;"><path d="M350.47-41.13L350.47-41.13L343.05-28.83L343.05-28.83Q342.58-30.39 341.84-32.34L341.84-32.34L341.84-32.34Q341.09-34.30 340-36.00L340-36.00L340-36.00Q338.91-37.70 337.38-38.85L337.38-38.85L337.38-38.85Q335.86-40 333.87-40L333.87-40L333.87-40Q332.03-40 330.68-39.06L330.68-39.06L330.68-39.06Q329.34-38.13 328.40-36.62L328.40-36.62L328.40-36.62Q327.46-35.12 326.86-33.22L326.86-33.22L326.86-33.22Q326.25-31.33 325.92-29.39L325.92-29.39L325.92-29.39Q325.59-27.46 325.47-25.68L325.47-25.68L325.47-25.68Q325.35-23.91 325.35-22.62L325.35-22.62L325.35 0L312.11 0L312.11-45.12L317.19-45.12L322.54-34.61L322.54-34.61Q323.63-37.15 325.04-39.28L325.04-39.28L325.04-39.28Q326.45-41.41 328.28-42.95L328.28-42.95L328.28-42.95Q330.12-44.49 332.44-45.35L332.44-45.35L332.44-45.35Q334.77-46.21 337.70-46.21L337.70-46.21L337.70-46.21Q339.22-46.21 341.09-45.96L341.09-45.96L341.09-45.96Q342.97-45.70 344.77-45.10L344.77-45.10L344.77-45.10Q346.56-44.49 348.09-43.52L348.09-43.52L348.09-43.52Q349.61-42.54 350.47-41.13" fill="#eb3f41" stroke="none" stroke-width="none" transform="translate(-184.37496948242188,23.29627700805664)" style="fill: rgb(235, 63, 65);"></path></g><g class="path" style="transform: scale(0.91); transform-origin: 178.205px -9.65372px; animation: 5s linear 0s infinite normal forwards running breath-829f95e3-8de9-4ace-a6d6-1f55e50d596d;"><path d="M369.18-52.19L369.18 0L355.98 0L355.98-65.90L361.05-65.90L369.18-52.19" fill="#eb3f41" stroke="none" stroke-width="none" transform="translate(-184.37496948242188,23.29627700805664)" style="fill: rgb(235, 63, 65);"></path></g></g>
</g>
</g>
<style id="breath-829f95e3-8de9-4ace-a6d6-1f55e50d596d" data-anikit="">@keyframes breath-829f95e3-8de9-4ace-a6d6-1f55e50d596d
{
  0% {
    animation-timing-function: cubic-bezier(0.9647,0.2413,-0.0705,0.7911);
    transform: scale(0.9099999999999999);
  }
  51% {
    animation-timing-function: cubic-bezier(0.9226,0.2631,-0.0308,0.7628);
    transform: scale(1.02994);
  }
  100% {
    transform: scale(0.9099999999999999);
  }
}</style></svg>